# xmcd
#
# Track frame offsets:
#	150
#	18248
#	34693
#	54942
#	75348
#	95289
#	113511
#	126017
#	145029
#	164866
#	181236
#
# Disc length: 2499 seconds
#
# Revision: 0
# Processed by: cddbd v1.4PL0 Copyright (c) Steve Scherf et al.
# Submitted via: dBpowerAMP V4.0
#
DISCID=7c09c10b
DTITLE=โอ้ - Oh! YES
DYEAR=1900
DGENRE=
TTITLE0=รักและศรัทธา
TTITLE1=ไม่ต่างกัน
TTITLE2=ทะเลาะ
TTITLE3=ได้แต่เธอ
TTITLE4=ตามทางฝัน
TTITLE5=บอกเธอไว้เลย
TTITLE6=บอกรัก
TTITLE7=แค่อยากรู้
TTITLE8=เรื่องเก่าเล่าใหม่
TTITLE9=คืนที่เป็นใจ
TTITLE10=เพลงก่อนนอน
EXTD=
EXTT0=
EXTT1=
EXTT2=
EXTT3=
EXTT4=
EXTT5=
EXTT6=
EXTT7=
EXTT8=
EXTT9=
EXTT10=
PLAYORDER=
